<?xml version="1.0" standalone="no"?>
<!DOCTYPE svg PUBLIC "-//W3C//DTD SVG 20010904//EN"
 "http://www.w3.org/TR/2001/REC-SVG-20010904/DTD/svg10.dtd">
<svg version="1.0" xmlns="http://www.w3.org/2000/svg"
 width="300.000000pt" height="190.000000pt" viewBox="0 0 300.000000 190.000000"
 preserveAspectRatio="xMidYMid meet">
<metadata>
Created by potrace 1.10, written by Peter Selinger 2001-2011
</metadata>
<g transform="translate(0.000000,190.000000) scale(0.100000,-0.100000)"
fill="#000000" stroke="none">
<path d="M1405 1549 c-51 -18 -79 -32 -120 -63 -22 -16 -42 -31 -44 -33 -2 -2
-2 -5 1 -8 3 -3 12 0 19 7 29 28 68 48 74 38 3 -6 2 -10 -3 -10 -6 0 -13 -8
-17 -17 -4 -11 7 -6 27 13 52 50 93 66 167 66 48 1 78 -5 106 -20 53 -27 93
-67 98 -100 l4 -27 2 29 c2 43 -33 91 -82 111 -50 21 -189 29 -232 14z"/>
<path d="M945 1325 c0 -71 1 -75 22 -75 19 0 21 4 16 35 -6 37 10 48 35 23 9
-9 12 -6 12 15 0 24 -2 26 -19 17 -28 -15 -31 -13 -31 20 0 35 21 40 59 14 22
-16 23 -15 19 2 -3 15 -14 20 -58 22 l-55 3 0 -76z"/>
<path d="M1270 1391 c0 -6 5 -13 11 -17 6 -3 22 -32 36 -63 18 -41 27 -52 33
-40 13 22 -39 129 -62 129 -10 0 -18 -4 -18 -9z"/>
<path d="M1398 1393 c0 -5 -2 -30 -2 -58 -1 -27 -5 -58 -10 -67 -7 -15 -3 -18
16 -18 23 0 24 2 20 60 -3 39 0 65 8 75 10 13 9 15 -9 15 -11 0 -22 -3 -23 -7z"/>
<path d="M1495 1325 c0 -68 2 -75 18 -73 16 3 19 14 20 76 2 66 0 72 -18 72
-18 0 -20 -7 -20 -75z"/>
<path d="M1605 1325 l0 -76 60 3 c56 3 60 5 63 28 2 23 1 24 -11 8 -8 -11 -28
-18 -46 -18 -31 0 -31 0 -31 53 0 29 5 58 12 65 9 9 5 12 -17 12 l-30 0 0 -75z"/>
<path d="M1775 1325 c0 -68 2 -75 20 -75 18 0 20 7 20 75 0 68 -2 75 -20 75
-18 0 -20 -7 -20 -75z"/>
<path d="M1930 1390 c-12 -7 -12 -14 -4 -27 6 -10 17 -39 25 -65 10 -36 18
-48 32 -48 14 0 17 4 12 18 -4 9 -17 43 -29 74 -17 45 -25 55 -36 48z"/>
<path d="M1140 1382 c0 -4 9 -25 20 -47 11 -22 20 -50 20 -62 0 -17 6 -23 21
-23 16 0 19 4 14 18 -4 9 -16 41 -27 70 -11 29 -26 52 -34 52 -8 0 -14 -4 -14
-8z"/>
<path d="M1107 1300 c-23 -47 -23 -50 -6 -50 14 0 19 7 19 25 0 16 6 25 16 25
13 0 14 3 4 15 -6 8 -9 19 -5 25 3 5 4 10 1 10 -3 0 -16 -22 -29 -50z"/>
<path d="M1886 1304 c-31 -56 -31 -54 -6 -54 12 0 20 6 19 13 -3 26 2 37 17
37 13 0 14 3 4 15 -6 8 -9 19 -5 25 3 5 4 10 1 10 -2 0 -16 -21 -30 -46z"/>
<path d="M1281 1293 c0 -6 -4 -18 -7 -27 -4 -12 0 -16 15 -16 12 0 21 5 21 10
0 6 -4 10 -9 10 -5 0 -12 8 -14 18 -3 9 -5 12 -6 5z"/>
<path d="M1557 1201 c3 -11 -2 -21 -12 -25 -21 -8 -35 0 -35 20 0 8 -4 14 -10
14 -15 0 -12 -27 6 -44 8 -9 23 -16 33 -16 20 0 47 43 37 59 -11 18 -25 13
-19 -8z"/>
<path d="M1031 1150 c-107 -26 -163 -157 -111 -259 37 -74 151 -109 245 -76
24 9 41 11 43 5 2 -6 8 -8 13 -4 12 7 12 104 -1 104 -5 0 -10 -8 -10 -18 0
-10 -14 -31 -31 -48 -27 -25 -38 -29 -89 -29 -53 0 -63 3 -89 30 -42 42 -58
108 -41 169 23 83 81 126 153 112 57 -11 65 -21 44 -56 -22 -36 -16 -60 13
-60 28 0 47 42 34 78 -16 46 -99 71 -173 52z"/>
<path d="M469 1133 c-8 -10 -29 -49 -46 -88 -90 -200 -103 -225 -118 -225 -8
0 -15 -4 -15 -8 0 -5 22 -8 50 -8 27 1 50 4 50 9 0 4 -7 7 -15 7 -19 0 -19 14
1 67 16 41 19 43 58 43 22 0 51 3 62 6 19 5 24 -1 39 -47 16 -48 16 -53 1 -64
-9 -7 -16 -14 -16 -16 0 -3 122 -3 140 0 3 1 -6 7 -20 14 -30 15 -45 44 -101
204 -24 68 -47 123 -50 123 -3 0 -12 -8 -20 -17z m14 -106 c8 -23 18 -50 22
-59 6 -16 1 -18 -44 -18 -28 0 -51 3 -51 6 0 20 44 123 50 119 5 -3 15 -24 23
-48z"/>
<path d="M695 1140 c3 -5 12 -10 20 -10 21 0 25 -24 25 -145 0 -120 -10 -165
-35 -165 -8 0 -15 -3 -15 -8 0 -4 31 -7 70 -7 69 0 90 8 50 18 -19 5 -20 14
-20 151 l0 145 28 15 c26 15 24 15 -51 16 -50 0 -76 -4 -72 -10z"/>
<path d="M1439 1133 c-17 -21 -54 -96 -99 -206 -32 -78 -52 -107 -72 -107 -6
0 -9 -3 -5 -6 9 -10 107 -12 107 -3 0 5 -6 9 -14 9 -25 0 -28 19 -10 65 17 45
17 45 65 45 26 0 54 3 62 6 11 4 19 -8 31 -42 20 -59 20 -74 1 -74 -8 0 -15
-3 -15 -7 0 -10 128 -9 137 0 3 4 -1 7 -10 7 -26 0 -51 47 -103 192 -27 76
-52 138 -55 138 -3 0 -12 -8 -20 -17z m19 -111 c12 -32 22 -61 22 -65 0 -4
-22 -7 -50 -7 -27 0 -50 3 -50 6 0 15 43 124 49 124 3 0 16 -26 29 -58z"/>
<path d="M1675 1138 c32 -18 35 -28 35 -139 0 -131 -6 -167 -32 -175 -32 -10
-15 -15 61 -18 70 -3 94 6 47 18 -23 6 -25 11 -28 83 -2 43 -1 112 2 153 l5
75 35 -3 c55 -4 80 -26 80 -70 0 -46 -32 -82 -73 -82 -14 0 -29 -4 -32 -10 -3
-5 1 -10 9 -10 19 0 57 -40 97 -102 27 -42 34 -46 77 -50 62 -6 71 0 31 20
-18 10 -54 45 -81 79 l-47 61 34 21 c40 23 52 59 36 99 -21 49 -57 62 -173 62
-82 -1 -99 -3 -83 -12z"/>
<path d="M2063 1137 l27 -11 0 -147 c0 -139 -1 -148 -20 -154 -44 -14 -14 -20
97 -19 93 1 125 5 153 19 67 34 90 76 90 159 0 67 -28 113 -90 144 -39 19 -58
22 -165 21 -97 -1 -115 -3 -92 -12z m169 -6 c63 -2 128 -77 128 -149 0 -44
-22 -100 -50 -127 -20 -20 -41 -27 -81 -31 -83 -8 -84 -6 -84 148 0 145 5 168
32 163 10 -2 35 -4 55 -4z"/>
<path d="M2485 1140 c3 -5 12 -10 20 -10 21 0 25 -24 25 -145 0 -120 -10 -165
-35 -165 -8 0 -15 -3 -15 -7 0 -5 32 -8 70 -8 39 0 70 3 70 7 0 5 -7 8 -15 8
-26 0 -30 27 -27 169 2 112 6 141 17 141 8 0 17 5 20 10 4 6 -20 10 -65 10
-45 0 -69 -4 -65 -10z"/>
<path d="M1091 1037 c-16 -16 -14 -34 5 -41 21 -8 34 1 34 24 0 22 -23 33 -39
17z"/>
<path d="M1143 984 c-3 -8 -1 -20 5 -26 16 -16 42 -2 42 22 0 24 -38 28 -47 4z"/>
<path d="M1079 964 c-11 -14 -10 -18 5 -29 33 -24 62 5 34 33 -16 16 -23 15
-39 -4z"/>
<path d="M1610 959 c-34 -18 -34 -19 -9 -19 15 0 37 9 50 20 31 25 7 24 -41
-1z"/>
<path d="M664 745 c-8 -32 15 -83 41 -87 30 -5 66 2 60 12 -3 5 -11 7 -19 4
-7 -3 -25 0 -39 5 -29 11 -33 45 -7 61 7 4 9 13 6 19 -12 19 -35 12 -42 -14z"/>
<path d="M2194 758 c-4 -6 0 -17 10 -23 13 -10 14 -18 6 -39 -10 -27 -24 -33
-35 -16 -3 6 -11 10 -16 10 -6 0 -7 -4 -4 -10 3 -5 0 -10 -7 -11 -7 0 -4 -4 6
-8 31 -12 63 -1 75 25 14 32 14 57 -1 72 -15 15 -25 15 -34 0z"/>
<path d="M1202 717 c-12 -13 -22 -32 -22 -42 0 -13 6 -9 23 16 19 28 29 33 53
31 16 -1 37 -12 47 -24 13 -16 17 -17 17 -5 0 21 -39 47 -70 47 -15 0 -36 -10
-48 -23z"/>
<path d="M1602 724 c-12 -8 -22 -23 -21 -32 0 -14 2 -14 6 -2 8 19 34 39 48
35 5 -2 22 -6 38 -9 18 -4 27 -13 27 -26 0 -11 5 -20 10 -20 16 0 12 15 -11
44 -24 30 -63 34 -97 10z"/>
<path d="M1048 663 c-14 -2 -32 -11 -39 -19 -10 -13 -7 -14 27 -9 32 5 43 2
64 -17 37 -35 82 -68 91 -68 4 0 -20 27 -53 60 -33 33 -60 59 -61 59 -1 -1
-14 -4 -29 -6z"/>
<path d="M1763 610 c-33 -33 -57 -60 -53 -60 7 0 55 35 78 57 26 25 53 34 83
28 17 -4 29 -2 29 4 0 9 -9 13 -61 27 -9 2 -39 -20 -76 -56z"/>
<path d="M1477 635 c17 -52 69 -95 117 -95 38 0 31 7 -14 14 -32 5 -63 31 -97
83 -12 17 -12 17 -6 -2z"/>
<path d="M1951 632 c-4 -45 51 -69 84 -36 21 21 13 29 -15 14 -26 -14 -57 -5
-63 18 -3 9 -5 11 -6 4z"/>
<path d="M926 615 c-6 -17 -42 -20 -51 -5 -12 20 -26 10 -15 -10 19 -35 88
-17 90 23 0 13 -18 7 -24 -8z"/>
<path d="M1434 554 c3 -8 2 -13 -3 -10 -5 3 -19 -2 -31 -12 -19 -15 -21 -22
-11 -40 6 -11 11 -30 11 -41 0 -17 6 -20 43 -18 51 3 68 13 60 32 -3 9 0 22 7
30 13 16 5 35 -15 35 -8 0 -19 9 -25 20 -13 24 -45 28 -36 4z m46 -54 c0 -33
-10 -44 -39 -48 -14 -1 -22 1 -18 4 3 4 2 15 -3 25 -16 28 -2 49 31 47 24 -2
29 -7 29 -28z"/>
</g>
</svg>
