 <svg  version="1.0" xmlns="http://www.w3.org/2000/svg"  width="300.000000pt" height="221.000000pt" viewBox="0 0 300.000000 221.000000"  preserveAspectRatio="xMidYMid meet">  <g transform="translate(0.000000,221.000000) scale(0.100000,-0.100000)" fill="#5d2222" stroke="none"> <path d="M1417 2200 c-118 -15 -259 -109 -329 -220 -97 -152 -94 -367 6 -524 99 -156 295 -245 476 -217 86 13 193 61 257 116 200 171 218 492 39 692 -112 125 -265 177 -449 153z m192 -31 c108 -25 218 -103 281 -201 53 -81 74 -165 68 -276 -4 -79 -9 -99 -42 -167 -69 -140 -190 -230 -343 -257 -242 -41 -482 135 -524 384 -36 217 104 440 321 509 61 20 172 24 239 8z"/> <path d="M1430 2159 c-169 -28 -313 -161 -356 -329 -38 -149 9 -316 119 -423 258 -252 689 -108 748 250 20 120 -19 256 -101 355 -91 109 -263 171 -410 147z m95 -19 c5 8 11 5 21 -7 8 -11 13 -13 14 -5 0 6 5 12 11 12 5 0 7 -4 4 -10 -9 -14 8 -13 23 2 9 9 12 8 12 -6 0 -13 5 -16 23 -11 19 5 20 4 6 -7 -9 -7 -14 -20 -12 -28 2 -8 -3 -3 -12 13 -19 33 -29 35 -20 5 7 -23 7 -23 -9 -3 -8 11 -16 14 -16 8 0 -7 -5 -13 -11 -13 -5 0 -7 5 -4 10 3 6 2 10 -4 10 -5 0 -12 -6 -14 -12 -4 -10 -8 -10 -15 1 -7 10 -11 10 -17 1 -6 -9 -10 -9 -16 1 -8 12 -11 11 -20 -1 -8 -12 -9 -10 -4 8 3 12 2 22 -3 22 -5 0 -12 -9 -15 -20 -3 -11 -11 -20 -19 -20 -10 0 -9 3 2 10 8 5 11 10 6 10 -5 0 -3 7 4 15 7 9 21 13 31 10 11 -4 19 -1 19 6 0 9 3 9 14 0 10 -9 16 -9 21 -1z m-101 -24 c-4 -11 -13 -15 -28 -10 -21 6 -21 6 -1 -10 20 -17 20 -17 -4 -10 -16 4 -21 3 -17 -5 4 -6 2 -11 -3 -11 -14 0 -14 3 1 35 6 14 17 24 24 21 8 -3 16 -1 20 5 9 15 15 4 8 -15z m-64 -3 c0 -5 -4 -14 -9 -22 -7 -10 -12 -11 -27 -1 -17 10 -17 11 -1 6 11 -3 20 0 23 9 6 16 14 20 14 8z m320 -14 c0 -6 7 -9 15 -5 8 3 15 1 15 -3 0 -15 -33 -22 -43 -9 -6 9 -7 8 -3 -4 7 -23 -10 -24 -18 -1 -4 9 -1 20 6 25 18 11 28 10 28 -3z m-374 -17 c13 -9 14 -42 1 -42 -5 0 -7 7 -3 15 3 9 0 15 -9 15 -8 0 -15 5 -15 10 0 12 11 13 26 2z m354 -39 c41 -20 68 -29 74 -23 7 7 4 10 -7 10 -9 0 -17 5 -17 10 0 6 -8 10 -17 10 -15 0 -16 2 -3 10 21 14 30 12 30 -5 0 -9 6 -12 15 -9 10 4 15 0 15 -15 0 -12 -5 -21 -11 -21 -6 0 5 -18 24 -40 62 -68 90 -134 95 -226 5 -93 -11 -156 -58 -225 -16 -24 -26 -48 -22 -54 4 -6 8 -3 10 8 2 9 10 17 17 17 9 0 12 6 9 15 -5 11 0 15 17 14 13 0 18 -3 12 -6 -7 -2 -13 -11 -13 -19 0 -8 -7 -14 -15 -14 -9 0 -12 -6 -9 -15 4 -10 0 -15 -15 -15 -12 0 -21 5 -21 11 0 6 -23 -6 -50 -26 -115 -85 -256 -96 -382 -32 -37 19 -69 32 -71 28 -2 -3 -3 -1 -1 6 1 6 -6 19 -16 28 -19 17 -20 17 -29 -6 -9 -23 -10 -23 -10 -2 -1 12 4 23 9 25 6 2 4 12 -5 25 -9 13 -22 20 -30 17 -8 -4 -15 -1 -15 6 0 6 5 8 10 5 13 -8 13 -8 -12 55 -15 40 -22 77 -22 135 -1 96 27 167 94 239 80 87 153 117 275 113 68 -2 91 -7 145 -34z m85 27 c3 -5 1 -10 -4 -10 -6 0 -11 5 -11 10 0 6 2 10 4 10 3 0 8 -4 11 -10z m-471 -6 c18 -7 22 -44 5 -44 -6 0 -9 7 -5 15 3 9 0 15 -9 15 -8 0 -15 5 -15 10 0 12 3 12 24 4z m76 2 c0 -3 -4 -8 -10 -11 -5 -3 -10 -1 -10 4 0 6 5 11 10 11 6 0 10 -2 10 -4z m-93 -58 c-3 -7 -5 -2 -5 12 0 14 2 19 5 13 2 -7 2 -19 0 -25z m543 13 c0 -6 -9 -9 -20 -8 -11 1 -20 5 -20 9 0 4 9 8 20 8 11 0 20 -4 20 -9z m-588 -31 c3 -17 1 -33 -4 -36 -4 -3 -8 11 -8 30 0 44 6 47 12 6z m28 20 c0 -5 -4 -10 -10 -10 -5 0 -10 5 -10 10 0 6 5 10 10 10 6 0 10 -4 10 -10z m553 -17 c-7 -2 -19 -2 -25 0 -7 3 -2 5 12 5 14 0 19 -2 13 -5z m30 -13 c-3 -11 -7 -20 -9 -20 -2 0 -4 9 -4 20 0 11 4 20 9 20 5 0 7 -9 4 -20z m-633 -10 c0 -11 -7 -20 -15 -20 -9 0 -12 -6 -8 -17 4 -11 3 -14 -5 -9 -7 4 -12 1 -12 -8 0 -8 6 -14 13 -12 6 1 9 1 5 -1 -5 -3 -8 -12 -8 -21 -1 -11 -7 -6 -17 13 -11 20 -12 30 -4 33 6 2 11 10 11 18 0 8 7 14 15 14 9 0 12 6 9 15 -4 8 -1 15 5 15 6 0 11 -9 11 -20z m610 0 c0 -5 -4 -10 -10 -10 -5 0 -10 5 -10 10 0 6 5 10 10 10 6 0 10 -4 10 -10z m53 -51 c6 -4 5 -14 -3 -25 -10 -16 -11 -16 -6 -1 3 11 0 17 -9 17 -17 0 -18 2 -8 26 5 14 8 15 11 3 3 -7 9 -17 15 -20z m12 21 c3 -5 1 -10 -4 -10 -6 0 -11 5 -11 10 0 6 2 10 4 10 3 0 8 -4 11 -10z m-665 -4 c0 -3 -4 -8 -10 -11 -5 -3 -10 -1 -10 4 0 6 5 11 10 11 6 0 10 -2 10 -4z m684 -41 c-4 -8 -1 -15 6 -15 7 0 9 -8 5 -21 -5 -15 -4 -19 4 -15 6 4 11 2 11 -3 0 -6 -3 -11 -6 -11 -5 0 -45 19 -52 25 -1 1 3 14 9 29 13 27 33 37 23 11z m-745 -22 c12 -26 3 -42 -21 -43 -5 0 -8 -4 -8 -10 0 -5 7 -7 15 -4 8 4 15 1 15 -6 0 -6 -4 -8 -10 -5 -5 3 -10 1 -10 -4 0 -6 5 -11 11 -11 8 0 9 -4 0 -13 -6 -8 -8 -17 -4 -20 3 -4 0 -13 -7 -22 -10 -12 -10 -15 1 -15 12 0 12 -2 0 -9 -10 -6 -10 -10 -1 -16 6 -4 9 -13 6 -21 -3 -8 -1 -14 4 -14 6 0 10 -5 10 -11 0 -6 -6 -9 -14 -6 -7 3 -19 0 -26 -6 -10 -10 -12 -8 -6 7 4 12 1 23 -6 28 -10 8 -10 11 0 15 6 2 12 9 12 14 0 6 -4 7 -10 4 -5 -3 -10 -2 -10 4 0 5 6 12 13 14 9 4 8 8 -3 16 -13 10 -13 12 0 21 12 8 13 11 1 19 -9 6 -10 11 -3 15 6 4 9 13 5 21 -3 8 -1 15 4 15 5 0 18 7 29 16 18 15 18 15 -3 9 -14 -4 -23 -2 -23 4 0 6 7 11 16 11 14 0 14 3 4 15 -7 8 -8 15 -3 15 5 0 15 -12 22 -27z m776 -80 c-2 -7 1 -15 7 -19 7 -4 6 -9 -3 -15 -12 -8 -11 -11 1 -19 13 -9 13 -11 0 -20 -12 -8 -13 -11 -1 -19 9 -6 10 -11 2 -15 -6 -4 -8 -12 -5 -18 4 -6 0 -14 -7 -19 -12 -8 -12 -10 0 -18 8 -5 9 -11 3 -15 -5 -3 -13 1 -16 10 -4 9 -9 14 -13 11 -3 -4 2 -18 11 -32 9 -14 13 -25 9 -25 -5 0 -16 14 -25 30 -9 17 -13 30 -7 30 6 0 7 5 3 11 -3 6 0 15 7 20 12 8 12 11 -1 19 -9 6 -10 10 -3 10 12 0 12 37 0 57 -4 6 -1 14 5 16 10 4 9 8 -2 17 -13 10 -13 11 3 6 9 -3 17 -1 17 4 0 5 -9 12 -20 15 -11 3 -20 10 -20 15 0 5 14 1 30 -8 17 -9 28 -22 25 -29z m-775 -183 c-9 -6 -8 -10 6 -19 11 -6 15 -10 9 -11 -19 0 -38 18 -31 29 4 6 2 11 -3 11 -6 0 -11 -4 -11 -10 0 -5 -5 -10 -10 -10 -6 0 -5 8 2 19 9 16 16 17 31 9 15 -7 16 -12 7 -18z m729 -41 c-23 -15 -35 -9 -15 6 11 8 14 15 7 15 -7 0 -9 5 -5 11 4 8 10 6 17 -6 7 -12 5 -20 -4 -26z m-719 -5 c14 -8 17 -13 8 -10 -12 3 -18 0 -18 -9 0 -8 -5 -15 -11 -15 -6 0 -8 9 -4 21 5 15 4 19 -4 15 -6 -4 -11 -2 -11 3 0 15 10 13 40 -5z m740 -12 c0 -5 -6 -9 -12 -9 -7 0 -21 -4 -30 -8 -11 -4 -18 -3 -18 5 0 6 4 9 8 6 4 -2 14 -1 22 5 19 11 30 11 30 1z m-734 -27 c-3 -9 0 -15 10 -15 10 0 14 -6 10 -15 -3 -9 0 -15 9 -15 8 0 15 -9 15 -20 0 -11 -5 -20 -11 -20 -6 0 -9 7 -5 15 3 9 0 15 -9 15 -8 0 -15 6 -15 14 0 8 -5 16 -11 18 -10 3 -3 38 8 38 3 0 3 -7 -1 -15z m724 -5 c0 -5 -4 -10 -10 -10 -5 0 -10 5 -10 10 0 6 5 10 10 10 6 0 10 -4 10 -10z m-20 -30 c0 -5 -4 -10 -10 -10 -5 0 -10 5 -10 10 0 6 5 10 10 10 6 0 10 -4 10 -10z m-20 -24 c0 -3 -4 -8 -10 -11 -5 -3 -10 -1 -10 4 0 6 5 11 10 11 6 0 10 -2 10 -4z m-590 -16 c0 -5 -4 -10 -10 -10 -5 0 -10 5 -10 10 0 6 5 10 10 10 6 0 10 -4 10 -10z m560 -20 c0 -5 -6 -7 -14 -4 -8 3 -16 -2 -19 -13 -4 -14 -5 -14 -6 5 -1 16 5 22 19 22 11 0 20 -4 20 -10z m-563 -20 c1 -11 -2 -20 -8 -20 -5 0 -9 9 -9 20 0 11 4 20 8 20 4 0 8 -9 9 -20z m510 -10 c-1 -23 -17 -28 -17 -6 0 8 -6 17 -12 19 -7 3 -3 6 9 6 16 1 21 -4 20 -19z m-469 3 c-10 -2 -15 -10 -11 -19 3 -8 1 -14 -4 -14 -5 0 -9 9 -10 20 -1 15 4 20 20 19 16 -1 17 -3 5 -6z m42 -13 c0 -5 -4 -10 -10 -10 -5 0 -10 5 -10 10 0 6 5 10 10 10 6 0 10 -4 10 -10z m397 -12 c-1 -21 -17 -25 -17 -4 0 8 -6 16 -12 19 -7 3 -3 4 9 4 14 -1 21 -7 20 -19z m-417 -20 c0 -19 -16 -5 -17 14 -2 18 0 20 7 8 5 -8 10 -18 10 -22z m379 23 c10 -7 11 -12 1 -27 -10 -16 -11 -16 -6 -1 3 9 1 17 -4 17 -6 0 -10 -4 -10 -10 0 -5 -4 -10 -9 -10 -5 0 -7 9 -4 20 6 22 11 24 32 11z m-339 -11 c-8 -5 -19 -10 -25 -10 -5 0 -3 5 5 10 8 5 20 10 25 10 6 0 3 -5 -5 -10z m300 0 c0 -5 -4 -10 -10 -10 -5 0 -10 5 -10 10 0 6 5 10 10 10 6 0 10 -4 10 -10z m-270 -15 c-11 -13 -10 -14 4 -9 9 3 16 1 16 -5 0 -6 -2 -11 -4 -11 -2 0 -11 -3 -19 -6 -19 -7 -32 27 -15 38 21 13 31 9 18 -7z m280 -28 c0 -4 -11 0 -25 9 -14 9 -28 14 -32 11 -3 -4 2 -9 11 -13 9 -3 13 -10 10 -15 -8 -14 -35 18 -28 34 5 13 9 13 35 -1 16 -10 29 -20 29 -25z m-240 21 c0 -9 3 -9 12 0 9 9 14 7 24 -6 8 -10 13 -12 14 -4 0 6 5 12 11 12 5 0 8 -3 6 -7 -3 -5 1 -14 9 -20 7 -7 15 -9 19 -4 3 5 -1 11 -7 14 -8 2 -9 8 -4 13 5 5 11 4 13 -3 3 -7 9 -13 14 -13 6 0 7 5 4 10 -3 6 -1 10 5 10 7 0 10 -7 6 -17 -4 -12 1 -9 15 7 21 24 21 24 15 3 -5 -14 -3 -23 3 -23 6 0 11 -5 11 -11 0 -8 -4 -8 -14 0 -11 9 -15 9 -19 -1 -4 -10 -8 -10 -16 2 -8 10 -13 12 -18 4 -5 -6 -17 -11 -28 -11 -11 0 -23 5 -27 11 -6 8 -11 6 -18 -4 -8 -13 -11 -12 -24 5 -9 11 -16 14 -16 8 0 -7 -5 -13 -11 -13 -8 0 -8 4 1 15 6 8 9 19 5 25 -3 5 -1 10 4 10 6 0 11 -5 11 -12z"/> <path d="M1490 2119 c0 -5 5 -7 10 -4 6 3 10 8 10 11 0 2 -4 4 -10 4 -5 0 -10 -5 -10 -11z"/> <path d="M1520 2120 c0 -5 5 -10 10 -10 6 0 10 5 10 10 0 6 -4 10 -10 10 -5 0 -10 -4 -10 -10z"/> <path d="M1419 2056 c-99 -26 -190 -103 -233 -195 -17 -37 -21 -65 -21 -141 0 -89 2 -99 34 -158 38 -70 89 -119 160 -154 39 -19 62 -23 146 -23 89 0 105 3 150 27 68 35 128 97 162 166 24 49 28 69 28 142 0 70 -5 95 -26 140 -49 106 -128 171 -238 196 -68 16 -102 16 -162 0z m206 -39 c56 -20 58 -22 30 -27 -17 -4 -40 -12 -53 -19 -12 -6 -26 -9 -31 -6 -5 3 -11 1 -13 -5 -2 -6 -15 -3 -33 6 -16 9 -54 18 -83 19 -29 1 -55 5 -59 8 -3 4 -12 2 -19 -4 -7 -6 -21 -9 -30 -7 -26 5 60 49 114 57 60 10 102 4 177 -22z m-105 -65 c17 -7 -3 -8 -66 -4 -98 5 -134 -5 -134 -38 0 -27 39 -50 98 -57 48 -5 53 -3 93 31 85 72 199 107 229 71 10 -13 10 -19 -4 -34 -21 -24 -121 -68 -161 -72 -18 -2 -46 -18 -70 -40 -22 -20 -53 -43 -69 -51 -28 -15 -28 -15 44 -22 41 -3 88 -2 110 4 43 12 93 47 85 61 -10 15 -69 10 -93 -7 -13 -9 -22 -11 -22 -4 0 5 16 18 35 27 47 22 89 9 93 -29 3 -22 -3 -30 -30 -44 -40 -21 -157 -29 -217 -16 -30 7 -60 7 -97 -1 -61 -13 -129 -1 -129 23 0 20 48 24 117 11 53 -9 53 -9 91 27 20 20 37 39 37 43 0 3 -22 9 -49 12 -120 14 -162 87 -67 117 35 11 138 6 176 -8z m-38 -28 l27 -5 -25 -26 c-20 -20 -32 -24 -64 -20 -70 8 -92 46 -34 58 29 6 45 4 96 -7z m-218 -15 c-10 -16 55 -68 94 -75 61 -11 69 -19 39 -39 -21 -13 -38 -15 -92 -10 -52 6 -70 4 -90 -9 -60 -40 -3 -76 110 -70 39 2 75 4 80 5 6 0 29 -3 53 -7 l43 -7 -30 -18 c-17 -10 -38 -33 -47 -50 -16 -31 -15 -35 1 -66 11 -20 27 -34 39 -35 12 -1 29 -2 38 -3 9 0 20 -3 23 -6 8 -9 -42 -40 -72 -45 -28 -5 -56 12 -46 30 3 6 2 8 -2 3 -5 -4 -16 0 -26 9 -23 21 -67 11 -78 -18 -7 -20 -8 -20 -36 8 -51 51 -79 129 -79 219 -1 80 13 128 53 181 15 21 38 23 25 3z m505 -19 c55 -29 70 -211 26 -303 -51 -107 -150 -175 -272 -184 -73 -6 -87 11 -17 22 54 8 108 37 148 79 16 17 34 30 40 28 6 -2 8 0 4 4 -9 9 25 59 74 107 21 21 38 42 38 46 0 18 -34 21 -92 10 -44 -9 -62 -9 -71 0 -8 8 -8 11 0 11 23 0 73 64 67 85 -8 23 -29 45 -43 45 -6 0 -11 5 -11 10 0 6 6 10 14 10 8 0 24 9 37 20 28 22 34 24 58 10z m-223 -89 c-3 -5 1 -14 9 -21 12 -10 21 -10 42 -1 23 10 25 10 14 -2 -13 -16 -95 -32 -111 -22 -5 3 2 17 18 30 29 26 36 30 28 16z m187 -168 c-32 -33 -75 -80 -96 -106 -45 -55 -119 -87 -203 -87 -60 0 -114 22 -114 46 0 11 8 14 32 12 34 -3 52 -27 21 -29 -10 -1 -5 -5 14 -11 18 -6 52 -7 79 -3 42 6 56 15 118 80 39 40 90 85 114 100 44 29 57 44 21 24 -14 -7 -51 -9 -108 -5 -76 6 -90 5 -119 -14 -18 -11 -36 -28 -39 -37 -8 -22 31 -53 67 -53 37 0 83 37 77 61 -3 11 -1 19 4 19 18 0 8 -42 -16 -65 -44 -45 -145 -27 -145 26 0 33 13 50 52 70 35 18 52 20 137 15 71 -5 104 -3 126 7 17 8 31 13 33 12 1 -1 -24 -29 -55 -62z m-153 -24 c0 -27 -56 -52 -82 -35 -35 21 -20 44 36 56 38 8 46 5 46 -21z"/> <path d="M1624 1931 c-42 -31 -80 -69 -73 -75 8 -7 123 36 151 56 39 27 36 48 -5 48 -22 0 -48 -11 -73 -29z m56 -11 c0 -5 -2 -10 -4 -10 -3 0 -8 5 -11 10 -3 6 -1 10 4 10 6 0 11 -4 11 -10z"/> <path d="M1230 1753 c0 -15 61 -23 101 -13 21 5 26 8 13 9 -12 1 -42 4 -68 7 -28 4 -46 3 -46 -3z"/> <path d="M1100 1791 c0 -5 5 -13 10 -16 6 -3 10 -2 10 4 0 5 -4 13 -10 16 -5 3 -10 2 -10 -4z"/> <path d="M1100 1749 c0 -5 5 -7 10 -4 6 3 10 8 10 11 0 2 -4 4 -10 4 -5 0 -10 -5 -10 -11z"/> <path d="M1100 1680 c0 -5 5 -10 10 -10 6 0 10 5 10 10 0 6 -4 10 -10 10 -5 0 -10 -4 -10 -10z"/> <path d="M1897 1773 c-4 -3 -7 -11 -7 -17 0 -6 5 -5 12 2 6 6 9 14 7 17 -3 3 -9 2 -12 -2z"/> <path d="M1890 1730 c0 -5 5 -10 10 -10 6 0 10 5 10 10 0 6 -4 10 -10 10 -5 0 -10 -4 -10 -10z"/> <path d="M1895 1690 c3 -5 8 -10 11 -10 2 0 4 5 4 10 0 6 -5 10 -11 10 -5 0 -7 -4 -4 -10z"/> <path d="M1885 1660 c-3 -5 -2 -10 4 -10 5 0 13 5 16 10 3 6 2 10 -4 10 -5 0 -13 -4 -16 -10z"/> <path d="M1430 1330 c0 -5 5 -10 10 -10 6 0 10 5 10 10 0 6 -4 10 -10 10 -5 0 -10 -4 -10 -10z"/> <path d="M1266 1005 c-44 -53 -32 -58 29 -12 23 17 51 37 61 44 17 10 15 12 -17 12 -31 1 -42 -5 -73 -44z"/> <path d="M26 896 c17 -8 34 -21 38 -31 8 -22 8 -348 0 -370 -4 -10 -21 -23 -38 -31 -27 -12 -8 -13 170 -14 l201 0 7 53 c8 72 8 87 -4 87 -5 0 -10 -9 -10 -20 0 -37 -30 -81 -65 -96 -64 -26 -144 -14 -165 26 -12 22 -16 352 -4 371 3 6 20 17 38 25 28 12 22 13 -84 13 -105 0 -112 -1 -84 -13z m94 -193 c0 -98 3 -188 6 -200 5 -18 2 -23 -12 -23 -18 0 -19 11 -19 200 0 153 3 200 13 200 9 0 12 -42 12 -177z"/> <path d="M580 723 c-84 -216 -101 -248 -138 -262 -21 -7 -10 -9 58 -9 69 0 80 2 57 10 -37 13 -42 44 -17 111 l22 58 75 -3 75 -3 26 -62 c24 -60 25 -63 8 -82 -10 -11 -28 -22 -40 -24 -11 -2 33 -4 99 -5 90 0 112 2 88 9 -23 7 -39 21 -52 47 -26 51 -161 380 -161 392 0 6 -6 10 -13 10 -9 0 -42 -73 -87 -187z m104 67 c-8 -7 -24 24 -23 45 0 15 4 13 14 -10 7 -16 11 -32 9 -35z m16 -137 c0 -2 -30 -3 -66 -3 -36 0 -64 4 -62 8 2 4 16 43 32 86 l29 78 34 -83 c18 -46 33 -84 33 -86z m25 55 c16 -40 39 -98 53 -128 43 -97 44 -100 24 -100 -12 0 -18 9 -20 29 -1 16 -15 60 -31 98 -53 125 -71 173 -62 173 4 0 21 -33 36 -72z"/> <path d="M1176 896 c17 -8 34 -21 38 -31 8 -22 8 -348 0 -370 -4 -10 -21 -23 -38 -31 -28 -12 -21 -13 84 -13 86 1 107 3 83 10 -22 6 -34 18 -42 41 -14 39 -15 317 -1 353 5 14 24 32 42 40 31 13 26 14 -82 14 -105 0 -112 -1 -84 -13z m95 -37 c-2 -8 -6 -81 -8 -163 -1 -82 -5 -152 -8 -154 -3 -3 -5 62 -5 144 0 82 -3 160 -7 173 -5 19 -3 22 13 19 11 -2 17 -10 15 -19z m3 -371 c-10 -16 -36 -8 -30 8 3 9 6 21 6 27 0 6 6 2 14 -8 8 -11 12 -23 10 -27z"/> <path d="M1416 896 c17 -8 34 -21 38 -31 8 -22 8 -348 0 -370 -4 -10 -21 -23 -38 -31 -28 -12 -21 -13 84 -12 63 0 105 3 94 5 -41 8 -54 36 -61 127 l-6 86 31 0 c39 0 69 -35 118 -140 l38 -80 170 1 c122 1 162 3 139 10 -18 5 -35 18 -38 30 -9 27 -8 366 1 380 3 6 20 17 38 25 28 12 22 13 -84 13 -105 0 -112 -1 -84 -13 17 -8 34 -21 38 -31 3 -9 6 -95 6 -191 0 -161 -2 -176 -20 -194 -25 -25 -72 -26 -92 -2 -9 9 -34 54 -57 100 -23 46 -48 85 -56 89 -24 9 -17 20 15 26 36 8 70 58 70 104 0 42 -41 90 -88 103 -20 5 -93 10 -162 10 -114 -1 -122 -2 -94 -14z m231 -32 c42 -46 42 -101 0 -149 -17 -20 -34 -28 -70 -31 l-47 -4 0 103 c0 57 3 107 7 111 15 14 88 -6 110 -30z m-140 -187 c2 -150 -1 -197 -10 -197 -9 0 -12 49 -12 200 0 129 4 199 10 197 6 -2 11 -80 12 -200z m449 195 c-3 -5 -6 -95 -7 -200 -1 -137 -4 -192 -13 -192 -8 0 -11 56 -11 200 0 186 1 200 18 200 10 0 16 -4 13 -8z m-226 -84 c0 -20 -21 -58 -33 -58 -1 0 0 30 1 67 4 63 5 66 18 43 7 -14 13 -37 14 -52z m-72 -143 c-3 -3 -9 2 -12 12 -6 14 -5 15 5 6 7 -7 10 -15 7 -18z m35 -69 c-5 -7 -9 -4 -11 9 -2 11 -7 25 -11 30 -3 6 2 2 11 -8 10 -11 15 -24 11 -31z m27 -40 c0 -8 7 -19 15 -26 17 -14 20 -30 6 -30 -5 0 -16 15 -25 34 -18 39 -20 50 -6 41 6 -3 10 -12 10 -19z"/> <path d="M2097 895 c19 -8 35 -23 38 -37 3 -13 4 -102 3 -198 l-3 -175 -35 -17 c-35 -18 -34 -18 126 -18 212 0 261 17 304 105 27 55 29 153 4 213 -21 55 -92 117 -149 131 -24 6 -106 11 -182 11 -127 -1 -135 -2 -106 -15z m262 -20 c41 -21 88 -79 100 -122 30 -108 -7 -237 -79 -275 -47 -25 -114 -24 -140 2 -19 19 -20 33 -20 221 l0 202 56 -7 c31 -3 68 -13 83 -21z m-172 -181 c1 -98 4 -187 7 -196 3 -12 -2 -18 -12 -18 -15 0 -17 20 -17 200 0 129 4 199 10 197 6 -2 11 -74 12 -183z m336 -26 c0 -57 -16 -112 -40 -136 -7 -7 -13 -9 -13 -3 0 5 5 13 10 16 6 4 8 10 5 15 -3 5 -1 11 5 15 6 4 9 46 6 113 -4 102 -3 105 11 72 8 -19 15 -61 16 -92z"/> <path d="M2607 903 c13 -2 32 -16 43 -30 18 -23 20 -40 20 -189 0 -89 -4 -174 -10 -188 -6 -16 -21 -29 -42 -35 -24 -7 25 -9 173 -10 l206 -1 1 73 c0 65 -1 68 -10 36 -5 -20 -23 -49 -39 -65 -27 -25 -37 -29 -94 -29 -94 0 -109 18 -113 134 l-4 89 41 -8 c50 -9 49 -8 66 -57 14 -37 14 -34 14 62 -1 70 -3 92 -9 72 -13 -44 -29 -57 -71 -57 l-39 0 0 101 0 102 73 -5 c83 -5 113 -20 129 -65 7 -18 16 -33 21 -33 5 0 6 7 3 16 -3 9 -6 33 -6 55 l0 39 -187 -1 c-104 -1 -178 -4 -166 -6z m105 -205 c2 -101 7 -191 12 -200 6 -14 4 -18 -10 -18 -18 0 -19 12 -19 200 0 110 3 200 7 200 4 0 8 -82 10 -182z"/> <path d="M0 390 c0 -7 507 -10 1500 -10 993 0 1500 3 1500 10 0 7 -507 10 -1500 10 -993 0 -1500 -3 -1500 -10z"/> <path d="M145 316 c-71 -31 -94 -106 -32 -106 23 0 91 66 82 80 -10 15 -41 12 -56 -7 -13 -15 -12 -15 8 -5 34 18 46 15 33 -8 -10 -19 -59 -50 -80 -50 -24 0 -9 49 21 71 35 25 129 39 129 20 0 -6 -7 -14 -15 -17 -8 -3 -46 -43 -85 -89 -70 -84 -103 -106 -123 -86 -8 8 -6 11 6 11 11 0 17 8 17 21 0 29 -34 21 -38 -10 -7 -46 37 -53 92 -16 20 13 36 21 36 17 0 -4 5 1 11 11 5 9 16 17 24 17 8 0 17 4 20 10 4 6 -1 7 -12 3 -17 -5 -17 -5 -2 12 14 14 21 15 39 5 19 -10 20 -14 7 -33 -8 -12 -26 -30 -40 -41 -23 -17 -28 -17 -44 -5 -17 13 -17 13 -4 -4 31 -40 111 2 111 57 0 26 5 34 30 43 24 9 30 17 30 42 0 16 -4 33 -10 36 -20 12 -10 27 15 23 14 -3 25 -2 25 2 0 12 -164 9 -195 -4z m145 -32 c0 -39 -44 -80 -69 -64 -11 6 -7 16 15 44 30 38 54 47 54 20z"/> <path d="M660 263 c-25 -36 -63 -86 -85 -111 -22 -26 -35 -43 -28 -39 6 4 14 3 18 -3 3 -5 10 -10 15 -10 13 0 72 52 65 58 -3 3 -19 -8 -37 -24 -35 -33 -29 -18 16 41 97 124 117 155 99 155 -11 0 -36 -27 -63 -67z"/> <path d="M1870 311 c-19 -10 -43 -33 -54 -50 -17 -30 -17 -34 -2 -49 15 -15 18 -15 43 4 37 28 50 51 36 65 -8 8 -17 8 -33 -1 -17 -9 -21 -9 -15 0 10 16 74 42 85 35 19 -12 9 -34 -38 -87 -67 -73 -80 -98 -57 -114 23 -17 62 -2 115 44 80 68 129 162 85 162 -21 0 -30 -27 -16 -44 20 -24 -114 -156 -159 -156 -19 0 -10 16 50 83 63 71 73 99 41 117 -27 14 -41 13 -81 -9z m20 -41 c0 -16 -38 -50 -56 -50 -10 0 -14 7 -12 23 2 14 9 21 20 19 9 -1 19 2 23 8 8 13 25 13 25 0z"/> <path d="M2702 270 c-29 -41 -47 -57 -57 -53 -24 8 -92 -44 -98 -75 -7 -34 7 -50 28 -32 12 10 18 10 30 0 11 -10 15 -10 15 0 0 6 36 58 80 116 58 76 75 104 62 104 -11 0 -36 -25 -60 -60z m-52 -65 c0 -13 -46 -66 -69 -82 l-26 -16 19 29 c34 53 76 91 76 69z"/> <path d="M1471 276 c-34 -19 -65 -76 -41 -76 6 0 10 9 10 19 0 22 35 51 62 51 27 0 22 -15 -17 -47 -94 -75 -108 -90 -102 -106 9 -25 35 -21 76 11 20 15 56 37 81 50 25 12 36 20 25 16 -58 -18 -60 -16 -17 27 34 36 44 41 52 29 11 -18 25 -6 16 16 -6 15 -8 15 -32 -1 -14 -9 -41 -34 -61 -56 -19 -21 -42 -39 -49 -39 -8 0 -13 -5 -11 -11 1 -6 -10 -20 -25 -32 -53 -40 -37 -10 34 61 59 60 68 75 58 87 -15 18 -28 18 -59 1z"/> <path d="M2157 273 c-13 -12 -7 -23 13 -23 11 0 20 7 20 15 0 15 -21 21 -33 8z"/> <path d="M2280 260 c-11 -7 1 -10 39 -10 30 0 52 2 50 4 -11 10 -76 14 -89 6z"/> <path d="M2940 191 c-30 -27 -52 -52 -48 -56 10 -11 40 3 33 15 -3 6 1 17 9 26 14 13 16 14 16 0 0 -8 -5 -27 -10 -41 -8 -21 -15 -26 -32 -22 -15 4 -18 3 -10 -5 14 -14 63 5 89 35 15 18 15 19 1 9 -16 -12 -16 -10 -11 25 3 21 10 44 16 51 18 23 2 12 -53 -37z"/> <path d="M385 196 c-35 -21 -41 -30 -40 -58 0 -40 21 -47 52 -18 12 11 29 20 37 20 8 0 18 4 21 10 3 6 -1 7 -9 4 -17 -7 -22 11 -6 21 14 9 12 45 -2 45 -7 0 -31 -11 -53 -24z m39 -24 c-15 -31 -53 -66 -62 -57 -3 2 12 25 33 50 42 52 53 54 29 7z"/> <path d="M554 194 c-29 -19 -40 -33 -42 -54 -3 -36 14 -48 22 -16 3 13 24 40 46 60 47 42 32 48 -26 10z"/> <path d="M745 196 c-32 -19 -41 -31 -43 -55 -1 -16 2 -32 8 -36 12 -7 62 18 81 41 8 11 -2 7 -25 -9 -22 -15 -41 -25 -43 -23 -11 11 15 39 53 55 25 11 44 27 44 35 0 23 -29 19 -75 -8z m40 -6 c-10 -11 -23 -20 -28 -20 -6 0 -2 9 8 20 10 11 23 20 28 20 6 0 2 -9 -8 -20z"/> <path d="M901 199 c-36 -22 -57 -60 -47 -86 6 -15 9 -14 21 12 13 32 71 92 80 83 3 -2 -11 -23 -30 -45 -19 -23 -35 -46 -35 -52 0 -6 -13 -17 -29 -26 -39 -19 -75 -65 -62 -78 14 -14 51 13 92 67 18 26 51 69 72 95 l37 49 -34 0 c-19 0 -48 -9 -65 -19z m-57 -154 c-28 -37 -34 -41 -34 -25 0 11 45 60 55 60 3 0 -6 -16 -21 -35z"/> <path d="M1078 194 c-34 -26 -51 -63 -38 -84 5 -9 13 -9 27 -2 14 8 23 8 31 0 9 -9 12 -9 12 1 0 8 16 33 35 57 19 23 35 45 35 47 0 16 -73 2 -102 -19z m62 8 c0 -13 -70 -85 -76 -79 -8 7 54 87 67 87 5 0 9 -4 9 -8z"/> <path d="M2089 190 c-27 -21 -36 -36 -35 -57 1 -36 30 -33 66 5 14 15 16 19 5 11 -11 -9 -27 -20 -35 -24 -13 -8 -13 -7 -1 11 8 10 28 34 45 52 27 28 28 32 10 32 -11 0 -36 -13 -55 -30z m1 -14 c0 -2 -8 -10 -17 -17 -16 -13 -17 -12 -4 4 13 16 21 21 21 13z"/> <path d="M2212 185 c-20 -19 -32 -35 -25 -35 7 0 17 9 23 20 6 11 20 25 32 31 17 9 14 1 -15 -39 -40 -54 -43 -62 -24 -62 17 0 85 92 79 108 -7 21 -31 13 -70 -23z"/> <path d="M2300 209 c-13 -9 -12 -10 3 -5 13 4 9 -5 -14 -34 -22 -27 -29 -44 -24 -57 6 -15 8 -15 13 -3 3 8 18 30 33 48 42 48 34 83 -11 51z"/> <path d="M2442 199 c-47 -31 -66 -81 -35 -93 16 -6 100 40 90 50 -3 3 -22 -7 -42 -21 -21 -14 -40 -23 -43 -20 -9 9 22 37 65 57 24 11 42 26 40 32 -6 19 -41 17 -75 -5z m53 1 c-3 -5 -16 -15 -28 -21 -22 -12 -22 -12 -3 10 19 21 43 30 31 11z"/> <path d="M2773 191 c-34 -24 -40 -34 -36 -55 7 -37 21 -41 54 -17 15 11 35 21 43 21 8 0 18 5 22 11 4 8 -1 9 -16 4 -22 -7 -22 -6 -6 16 38 55 3 66 -61 20z m67 10 c0 -5 -7 -11 -15 -15 -8 -3 -15 -11 -15 -19 0 -7 -11 -24 -25 -37 -36 -34 -31 -6 8 40 31 39 47 49 47 31z"/> <path d="M950 135 c-13 -14 -19 -25 -13 -25 5 0 20 11 33 25 13 14 19 25 13 25 -5 0 -20 -11 -33 -25z"/> <path d="M1139 134 l-24 -27 28 18 c15 9 27 21 27 26 0 14 -5 11 -31 -17z"/> <path d="M2309 133 l-24 -26 27 19 c15 10 28 22 28 27 0 12 -5 8 -31 -20z"/> <path d="M2649 134 l-24 -27 28 18 c15 9 27 21 27 26 0 14 -5 11 -31 -17z"/> </g> </svg> 