<?xml version="1.0" standalone="no"?>
<!DOCTYPE svg PUBLIC "-//W3C//DTD SVG 20010904//EN"
 "http://www.w3.org/TR/2001/REC-SVG-20010904/DTD/svg10.dtd">
<svg version="1.0" xmlns="http://www.w3.org/2000/svg"
 width="300.000000pt" height="300.000000pt" viewBox="0 0 300.000000 300.000000"
 preserveAspectRatio="xMidYMid meet">
<metadata>
Created by potrace 1.10, written by Peter Selinger 2001-2011
</metadata>
<g transform="translate(0.000000,300.000000) scale(0.100000,-0.100000)"
fill="#000000" stroke="none">
<path d="M1336 2164 c-175 -43 -345 -171 -439 -332 -40 -70 -78 -196 -84 -287
-14 -201 55 -383 202 -530 188 -188 443 -248 705 -166 97 30 186 87 272 173
137 137 205 315 195 508 -9 157 -68 306 -164 414 -98 109 -240 194 -371 222
-84 17 -238 16 -316 -2z m339 -19 c118 -30 202 -81 300 -179 141 -141 198
-278 196 -471 -1 -183 -61 -333 -184 -458 -128 -131 -272 -196 -452 -205 -117
-5 -184 6 -291 47 -192 75 -347 252 -400 461 -22 85 -22 235 0 320 52 200 211
382 399 458 131 53 293 63 432 27z"/>
<path d="M1486 2088 c-2 -10 0 -18 5 -18 5 0 9 5 9 10 0 6 7 10 15 10 17 0 18
-10 6 -62 -8 -33 -6 -37 13 -40 21 -4 22 -2 18 49 -5 54 7 70 27 36 9 -16 10
-16 11 4 0 18 -6 22 -49 25 -41 2 -51 0 -55 -14z"/>
<path d="M1375 2090 c-11 -5 -15 -9 -8 -9 6 -1 16 -15 22 -31 9 -27 8 -29 -8
-21 -10 6 -23 17 -31 25 -7 9 -24 16 -37 16 -20 0 -23 -3 -15 -13 6 -7 14 -32
18 -55 4 -26 12 -42 20 -42 17 0 17 1 -1 36 -26 50 -17 57 29 20 23 -20 46
-36 49 -36 3 0 0 21 -7 48 -7 26 -11 53 -9 60 5 14 5 14 -22 2z"/>
<path d="M1430 2085 c7 -8 11 -33 9 -58 -4 -40 -2 -43 18 -39 19 4 21 7 12 24
-6 11 -9 36 -7 54 4 30 1 34 -20 34 -20 0 -22 -2 -12 -15z"/>
<path d="M1214 2065 c-3 -8 -3 -18 0 -24 4 -5 -3 -13 -15 -16 -12 -4 -17 -10
-12 -14 14 -9 43 -67 43 -86 0 -13 6 -13 40 5 40 20 51 42 28 56 -8 5 -9 2 -5
-9 8 -23 -31 -45 -44 -26 -14 22 -11 32 7 25 12 -5 15 -2 10 10 -3 8 -6 19 -6
22 0 4 -4 1 -9 -7 -11 -16 -31 -6 -31 16 0 11 7 14 25 10 17 -3 24 0 22 7 -2
6 -14 10 -26 8 -18 -2 -21 2 -16 18 7 23 -3 28 -11 5z"/>
<path d="M1616 2064 c-25 -25 -20 -71 10 -90 24 -16 27 -16 52 3 32 24 40 64
17 87 -21 20 -59 21 -79 0z m64 -9 c19 -23 -6 -77 -34 -73 -25 4 -33 37 -16
67 13 25 33 27 50 6z"/>
<path d="M1720 2032 c0 -4 23 -17 50 -30 96 -44 215 -187 261 -314 21 -55 47
-84 34 -35 -20 73 -92 194 -153 259 -78 83 -192 154 -192 120z"/>
<path d="M1129 1977 c-36 -18 -38 -68 -4 -95 31 -24 62 -18 78 15 15 34 -6 55
-31 30 -16 -17 -16 -18 1 -11 12 4 17 1 17 -10 0 -42 -61 -21 -73 24 -6 23 17
45 38 36 8 -3 15 -1 15 4 0 16 -16 19 -41 7z"/>
<path d="M1540 1891 c-40 -13 -91 -41 -146 -83 -31 -23 -62 -38 -80 -38 -71
-1 -165 -73 -212 -165 -26 -52 -41 -167 -28 -219 12 -50 21 -25 21 62 1 75 4
94 28 140 35 66 88 125 131 146 63 30 67 20 21 -48 -72 -108 -126 -288 -111
-370 10 -53 54 -96 98 -96 104 0 178 147 178 353 0 99 -15 145 -57 172 l-25
16 57 45 c32 24 59 44 60 44 1 0 19 7 40 16 l38 15 -7 -23 c-4 -13 -11 -151
-16 -308 -6 -247 -11 -296 -30 -370 -33 -125 -43 -140 -89 -140 -47 0 -58 10
-28 24 15 8 23 22 25 47 5 62 -46 91 -88 49 -47 -47 0 -140 72 -140 108 0 187
147 210 396 12 121 13 124 36 124 35 0 79 29 110 74 23 34 27 49 27 112 0 81
-15 110 -75 152 -34 23 -107 29 -160 13z m122 -37 c94 -48 112 -194 31 -264
-21 -19 -45 -30 -63 -30 -29 0 -30 2 -30 48 0 26 -3 98 -7 161 l-6 113 24 -7
c13 -4 36 -14 51 -21z m-266 -156 c47 -91 11 -341 -63 -428 -39 -47 -102 -41
-130 14 -45 87 4 291 103 423 37 49 40 51 57 35 11 -9 25 -29 33 -44z"/>
<path d="M1022 1878 c-20 -25 -18 -60 4 -82 18 -19 65 -21 82 -4 18 18 14 63
-6 81 -22 20 -65 22 -80 5z m68 -28 c24 -24 25 -34 6 -49 -25 -21 -84 23 -72
54 8 21 42 19 66 -5z"/>
<path d="M958 1784 c-3 -12 7 -31 26 -52 l31 -33 -42 7 c-36 5 -43 3 -53 -15
-9 -18 -9 -22 2 -20 25 5 88 -22 88 -38 0 -13 -8 -14 -42 -9 -23 4 -45 12 -49
17 -4 7 -9 4 -13 -6 -10 -27 -8 -30 27 -31 46 -1 68 -11 61 -28 -6 -15 -54
-29 -54 -15 0 5 -9 9 -19 9 -21 0 -31 -19 -31 -58 0 -26 2 -27 46 -23 32 2 49
-1 55 -10 6 -10 9 -6 9 12 0 23 -3 26 -26 21 -35 -6 -28 20 7 28 14 4 25 14
26 25 1 11 6 37 11 58 8 31 7 37 -7 37 -9 1 -27 7 -41 16 -24 14 -23 14 23 8
26 -3 47 -3 47 1 0 3 -14 18 -30 32 -17 14 -29 28 -26 30 5 6 49 -17 57 -30 4
-5 11 -1 17 10 9 17 6 21 -34 32 -24 7 -48 20 -53 29 -8 13 -9 13 -13 -4z
m-20 -257 c2 -11 -2 -14 -17 -10 -22 5 -26 14 -14 27 10 10 28 1 31 -17z"/>
<path d="M2089 1602 c-2 -7 -26 -13 -56 -14 -42 -2 -53 -7 -53 -20 0 -19 17
-33 22 -18 2 6 27 12 56 13 28 1 52 4 51 7 -3 20 -17 42 -20 32z"/>
<path d="M1990 1484 c0 -51 -23 -144 -45 -186 -17 -29 -19 -39 -7 -35 13 4 92
-36 92 -46 0 -6 7 -2 15 9 16 22 20 38 5 29 -12 -8 -90 32 -90 46 0 6 7 9 15
5 8 -3 15 -1 15 4 0 6 -4 10 -10 10 -5 0 -10 7 -10 15 0 18 11 19 61 3 22 -6
39 -16 39 -22 0 -15 20 16 20 32 0 7 -4 11 -8 8 -15 -9 -92 16 -92 30 0 8 7
14 15 14 8 0 15 7 15 15 0 8 -4 15 -10 15 -5 0 -10 7 -10 15 0 19 96 22 103 3
3 -7 6 1 6 17 l1 30 -55 -3 c-44 -3 -55 -1 -55 11 0 9 6 18 13 20 7 3 5 6 -5
6 -15 1 -18 -8 -18 -45z"/>
<path d="M897 1441 c-2 -10 -2 -31 0 -45 4 -21 8 -24 23 -16 10 6 35 10 54 10
32 0 36 3 36 26 0 23 -1 24 -16 10 -22 -22 -31 -20 -38 9 -8 31 -51 35 -59 6z
m50 -17 c2 -6 -5 -14 -17 -17 -15 -4 -20 0 -20 15 0 21 30 23 37 2z"/>
<path d="M925 1348 c16 -55 75 -167 111 -210 125 -150 344 -240 518 -214 73
11 53 25 -28 19 -238 -18 -473 131 -562 357 -15 38 -31 70 -36 70 -5 0 -6 -10
-3 -22z"/>
<path d="M1883 1198 c-16 -18 -47 -50 -70 -70 -38 -33 -40 -38 -26 -55 11 -14
14 -14 10 -2 -3 9 -1 22 4 30 7 11 14 8 34 -16 14 -16 29 -38 33 -48 7 -17 9
-17 27 4 11 12 15 20 9 16 -6 -4 -26 12 -43 33 -26 32 -29 41 -17 46 8 3 21 2
28 -2 11 -6 11 -5 0 8 -9 11 -9 18 -3 23 14 8 81 -46 81 -64 0 -11 4 -9 15 5
16 21 20 38 6 30 -12 -8 -34 21 -26 34 5 8 14 7 30 -4 17 -11 25 -12 34 -3 15
15 14 25 -1 24 -40 -1 -56 5 -61 23 -8 29 -31 25 -64 -12z m53 -3 c10 -26 -6
-38 -27 -19 -10 9 -16 21 -13 25 8 14 34 10 40 -6z"/>
<path d="M1734 1049 c3 -17 6 -49 6 -70 0 -29 3 -37 15 -33 11 5 12 9 2 25
-10 16 -9 21 3 29 20 13 35 7 34 -14 -2 -19 1 -19 27 -5 18 9 17 12 -23 46
-24 19 -44 39 -46 44 -2 5 -8 9 -14 9 -6 0 -8 -12 -4 -31z"/>
<path d="M1626 1031 c-12 -5 -16 -10 -9 -14 11 -7 29 -83 24 -101 -1 -5 5 -6
14 -2 9 3 21 6 27 6 5 0 2 7 -6 16 -22 21 -20 29 10 42 37 18 30 56 -11 59
-16 1 -39 -1 -49 -6z m54 -26 c0 -16 -6 -25 -15 -25 -9 0 -15 9 -15 25 0 16 6
25 15 25 9 0 15 -9 15 -25z"/>
</g>
</svg>
