<?xml version="1.0" standalone="no"?>
<!DOCTYPE svg PUBLIC "-//W3C//DTD SVG 20010904//EN"
 "http://www.w3.org/TR/2001/REC-SVG-20010904/DTD/svg10.dtd">
<svg version="1.0" xmlns="http://www.w3.org/2000/svg"
 width="225.000000pt" height="225.000000pt" viewBox="0 0 225.000000 225.000000"
 preserveAspectRatio="xMidYMid meet">
<metadata>
Created by potrace 1.10, written by Peter Selinger 2001-2011
</metadata>
<g transform="translate(0.000000,225.000000) scale(0.100000,-0.100000)"
fill="#000000" stroke="none">
<path d="M1066 1747 c-15 -15 -30 -27 -33 -27 -4 0 -2 5 5 12 14 14 16 28 3
28 -5 0 -12 -8 -14 -17 -4 -17 -5 -17 -6 0 -1 21 -17 22 -37 3 -8 -8 -23 -12
-36 -9 -19 5 -21 3 -10 -8 6 -7 12 -24 12 -37 0 -20 3 -22 14 -13 8 6 19 25
26 41 11 26 14 28 24 14 10 -13 5 -22 -26 -54 -45 -44 -48 -72 -22 -195 9 -43
13 -95 10 -115 -6 -41 3 -54 64 -86 43 -22 156 -23 215 -2 37 14 40 18 43 55
l3 40 -58 -29 c-47 -24 -67 -29 -105 -25 -48 4 -128 49 -128 71 0 6 4 5 9 -3
5 -8 11 -9 15 -3 8 13 -10 26 -24 17 -6 -3 -8 -16 -4 -29 3 -14 -1 -27 -9 -35
-13 -10 -15 -7 -10 27 3 21 -2 81 -11 134 -9 52 -15 101 -12 109 13 44 17 50
27 43 8 -4 7 -9 -2 -15 -11 -7 -11 -9 2 -9 9 0 20 7 23 16 9 23 8 27 -9 20
-24 -9 -17 12 9 29 13 8 32 13 42 9 16 -5 16 -4 4 5 -11 8 -12 11 -2 11 7 0
11 4 8 9 -11 18 34 18 63 0 17 -10 31 -21 31 -24 0 -2 -15 5 -34 16 -28 16
-35 17 -39 5 -6 -15 34 -27 86 -26 16 0 48 -8 73 -19 l44 -20 0 43 0 44 -81
11 c-59 9 -84 9 -94 1 -10 -8 -14 -8 -17 2 -3 8 -14 3 -32 -15z"/>
<path d="M917 1689 c8 -8 8 -19 -2 -42 -11 -27 -11 -33 4 -44 14 -11 11 -12
-19 -8 -32 5 -33 4 -11 -5 14 -6 31 -15 37 -21 10 -8 12 -4 10 18 -1 15 1 40
5 54 7 28 -5 59 -23 59 -9 0 -9 -3 -1 -11z"/>
<path d="M1033 1672 c10 -10 17 -25 18 -33 0 -8 5 -4 11 9 6 12 16 22 22 22
22 0 -20 20 -43 20 -23 0 -23 -1 -8 -18z"/>
<path d="M986 1605 c-24 -24 -20 -41 5 -19 15 14 20 15 17 4 -2 -8 4 -15 12
-15 20 0 19 39 -1 43 -9 2 -24 -4 -33 -13z"/>
<path d="M890 1551 c0 -11 -4 -23 -10 -26 -20 -12 -10 -26 11 -15 22 12 54 6
45 -9 -3 -5 -14 -7 -25 -4 -21 5 -37 -25 -21 -41 7 -7 10 -4 10 8 0 12 5 16
14 13 8 -3 17 -1 20 6 2 7 5 0 5 -14 1 -14 -8 -36 -19 -49 -23 -26 -26 -38 -7
-22 10 8 16 6 25 -9 7 -10 16 -19 20 -19 8 0 4 86 -5 110 -6 15 -9 26 -11 46
-1 7 -13 19 -27 28 -24 16 -25 15 -25 -3z"/>
<path d="M990 1530 c-15 -28 -3 -41 15 -16 9 11 20 16 30 12 11 -4 15 -2 13 6
-8 23 -46 21 -58 -2z"/>
<path d="M829 1138 c0 -2 -1 -33 -2 -71 -1 -48 2 -67 11 -67 7 0 12 13 12 30
0 23 4 30 20 30 11 0 20 5 20 11 0 6 -9 9 -20 6 -16 -4 -20 0 -20 20 0 20 4
24 19 20 12 -3 22 1 25 9 4 10 -4 14 -29 14 -19 0 -35 -1 -36 -2z"/>
<path d="M935 1070 c0 -49 4 -70 13 -70 8 0 12 21 12 70 0 49 -4 70 -13 70 -8
0 -12 -20 -12 -70z"/>
<path d="M1000 1125 c7 -9 11 -36 8 -70 -2 -41 0 -55 11 -55 9 0 12 12 9 45
-2 25 -1 45 2 45 3 0 18 -20 33 -45 41 -64 53 -59 55 25 2 53 -1 70 -11 70
-10 0 -13 -14 -9 -57 l4 -58 -41 58 c-23 31 -49 57 -58 57 -12 0 -13 -3 -3
-15z"/>
<path d="M1195 1128 c-28 -16 -35 -28 -35 -64 0 -41 29 -66 71 -62 18 2 34 9
37 16 3 9 -3 10 -23 2 -33 -13 -31 -13 -49 6 -20 20 -21 68 -1 84 9 8 27 10
46 6 22 -4 29 -2 27 7 -6 16 -48 20 -73 5z"/>
<path d="M1323 1074 c-15 -32 -29 -62 -31 -66 -2 -5 3 -8 11 -8 8 0 17 9 20
20 3 14 14 20 32 20 18 0 29 -6 32 -20 3 -11 11 -20 19 -20 9 0 5 18 -16 61
-15 33 -31 63 -34 66 -3 4 -18 -20 -33 -53z"/>
<path d="M1344 896 c-16 -12 -13 -14 26 -14 25 0 58 -1 73 -2 16 -1 35 4 42
11 12 12 3 14 -54 16 -44 2 -75 -2 -87 -11z"/>
<path d="M349 867 c-70 -47 -74 -156 -6 -197 51 -31 131 -24 140 12 4 15 2 18
-11 12 -9 -4 -35 -9 -58 -12 -36 -3 -44 0 -64 25 -29 36 -24 108 10 135 25 20
71 23 101 8 16 -9 19 -7 19 9 0 38 -79 43 -131 8z"/>
<path d="M769 876 c8 -10 11 -49 9 -120 l-3 -106 25 0 c24 0 25 2 22 53 -2 30
-2 66 0 82 l3 28 36 -46 36 -46 37 50 c21 27 41 49 44 49 3 0 2 -38 -1 -85 -6
-83 -5 -85 16 -85 21 0 22 3 19 99 -2 61 1 107 7 120 10 19 9 21 -11 20 -16 0
-36 -18 -67 -60 l-43 -60 -47 60 c-33 45 -52 61 -70 61 -19 0 -21 -3 -12 -14z"/>
<path d="M1075 818 c1 -40 3 -85 4 -100 3 -59 77 -89 129 -52 20 14 22 14 22
0 0 -9 8 -16 18 -16 15 0 17 12 17 120 l0 120 -25 0 -25 0 3 -91 c4 -101 -4
-119 -49 -119 -46 0 -62 35 -57 130 3 76 2 80 -18 80 -20 0 -22 -4 -19 -72z"/>
<path d="M1670 881 c0 -6 -24 -61 -53 -121 l-54 -110 27 0 c24 0 28 5 34 41
l6 40 48 -3 c45 -3 47 -4 56 -40 8 -32 14 -38 36 -38 l25 0 -57 116 c-59 121
-68 135 -68 115z m28 -101 c11 -29 10 -30 -19 -30 -32 0 -35 7 -18 44 14 30
23 27 37 -14z"/>
<path d="M1851 871 c-34 -34 -27 -64 27 -109 40 -35 45 -43 36 -59 -14 -23
-50 -29 -71 -12 -13 11 -14 10 -11 -11 2 -20 10 -26 36 -28 49 -5 82 20 82 63
0 28 -7 40 -40 67 -28 22 -40 39 -38 53 4 24 42 32 65 14 13 -11 14 -10 11 11
-2 21 -9 26 -40 28 -27 2 -43 -3 -57 -17z"/>
<path d="M559 765 l-55 -115 27 0 c23 0 27 5 33 41 l6 40 48 -3 c45 -3 47 -4
56 -40 8 -32 14 -38 36 -38 l26 0 -55 115 c-31 63 -58 114 -61 114 -3 1 -30
-51 -61 -114z m76 25 c20 -39 20 -40 -15 -40 -16 0 -30 2 -30 4 0 8 22 66 26
66 2 0 10 -13 19 -30z"/>
<path d="M1323 833 c12 -15 14 -34 10 -100 -6 -81 -5 -83 17 -83 21 0 22 2 15
65 -3 36 -3 65 2 64 4 0 32 -29 62 -65 35 -40 62 -64 75 -64 20 0 21 6 21 95
0 90 -1 95 -21 95 -20 0 -21 -4 -16 -70 2 -38 2 -70 0 -70 -3 0 -33 34 -67 75
-48 58 -68 75 -88 75 -24 0 -25 -1 -10 -17z"/>
<path d="M831 530 c-19 -11 -9 -45 14 -45 13 0 21 8 23 21 3 23 -17 37 -37 24z"/>
<path d="M1077 533 c-15 -14 -7 -53 11 -53 14 0 15 2 2 10 -10 6 -11 10 -2 10
6 0 12 9 12 20 0 20 -11 26 -23 13z"/>
<path d="M1480 525 c-17 -20 -5 -45 20 -45 11 0 23 7 26 15 6 15 -11 45 -26
45 -4 0 -13 -7 -20 -15z"/>
<path d="M1586 533 c-3 -4 -6 -18 -5 -32 0 -14 3 -20 6 -13 3 8 9 10 16 3 9
-6 12 -2 13 14 2 23 -18 40 -30 28z"/>
<path d="M970 505 c0 -29 34 -36 44 -9 8 21 -1 34 -25 34 -14 0 -19 -7 -19
-25z"/>
<path d="M1210 521 c0 -5 -3 -18 -6 -28 -5 -14 -4 -15 4 -4 9 12 13 13 27 1
15 -12 15 -11 4 13 -12 26 -29 37 -29 18z"/>
</g>
</svg>
